PathFileType	4	(X/Y/Z)	AB11\squats_1.trc
DataRate	CameraRate	NumFrames	NumMarkers	Units	OrigDataRate	OrigDataStartFrame	OrigNumFrames
200.000000	200.000000	4	35	mm	200.000000	277	317
Frame#	Time	C7			LSHO			STRN			LASI			RASI			LPSI			RPSI			LGTR			RGTR			LTHC			LTHL			LTHR			LKNE			LMKNE			LSHC			LSHL			LSHR			LANK			LMANK			LMT1			LMT5			LCAL			RTHC			RTHL			RTHR			RKNE			RMKNE			RSHC			RSHL			RSHR			RANK			RMANK			RMT1			RMT5			RCAL			
		X1	Y1	Z1	X2	Y2	Z2	X3	Y3	Z3	X4	Y4	Z4	X5	Y5	Z5	X6	Y6	Z6	X7	Y7	Z7	X8	Y8	Z8	X9	Y9	Z9	X10	Y10	Z10	X11	Y11	Z11	X12	Y12	Z12	X13	Y13	Z13	X14	Y14	Z14	X15	Y15	Z15	X16	Y16	Z16	X17	Y17	Z17	X18	Y18	Z18	X19	Y19	Z19	X20	Y20	Z20	X21	Y21	Z21	X22	Y22	Z22	X23	Y23	Z23	X24	Y24	Z24	X25	Y25	Z25	X26	Y26	Z26	X27	Y27	Z27	X28	Y28	Z28	X29	Y29	Z29	X30	Y30	Z30	X31	Y31	Z31	X32	Y32	Z32	X33	Y33	Z33	X34	Y34	Z34	X35	Y35	Z35	

278	23.04	-2358.677614965508	1302.772440912248	2502.33737722928	-2281.613576509282	1275.119601484885	2371.49167303615	-2241.511421246432	1209.696680511446	2492.588058399138	-2326.233016720495	839.3989812704206	2351.854223128138	-2330.178403756197	852.4843659416777	2609.156803149421	-2525.782601233114	894.9386923039383	2435.898593996415	-2527.381811094016	893.8145332249774	2532.664800655956	-2400.025655104357	816.5056547165386	2277.546251404142	-2430.012961720289	817.2530993258156	2686.31747765557	-2372.075711869127	597.4192028594	2273.12352712639	-2213.34034413117	614.4411366991912	2316.496896777712	-2351.526229293578	491.0063845413584	2332.634609287828	-2237.381512021851	434.7000951882119	2253.106987592525	-2226.508371818143	417.7196405423324	2378.262533894451	-2310.844965347616	346.9203370549544	2224.68568151564	-2277.107707474463	206.2679924531888	2242.337874946309	-2365.380268250962	250.5475458914578	2291.913564228737	-2353.455303354498	93.99091247292897	2212.962011580002	-2332.034177190083	102.7959830701825	2297.821826815037	-2212.676675152545	74.25834850351858	2273.952101164005	-2249.318769494529	57.59257585429412	2193.261831499257	-2419.754237438466	66.8308190680381	2259.624665307337	-2200.086489904481	579.2654622332888	2599.415679758636	-2338.115330224708	630.7181123486139	2697.943718377736	-2349.583988607118	545.9875444235273	2676.545068308058	-2236.049134980283	446.1591855825228	2700.733212828519	-2239.910871131232	405.9574103460517	2577.285246018258	-2264.010728274667	193.4485273085115	2685.288109652525	-2365.965068929496	220.2991332713715	2675.471821368264	-2309.664354729322	280.4851858573843	2735.56727184395	-2352.090829782896	91.76101043803588	2732.531021879487	-2331.108831781247	92.3123366230201	2648.872198842878	-2207.047390442978	71.13185794650776	2686.490645417016	-2240.568782789573	53.9451610371876	2762.399503563222	-2413.217152496707	63.44990427837835	2677.850526931981	
279	23.045	-2360.100794170341	1306.189273852701	2502.254485769201	-2283.285075812852	1278.82045017108	2371.104679855412	-2242.410412142532	1213.687690789301	2492.456439764744	-2324.355727522659	842.3666099193703	2351.681646983163	-2328.015692336525	855.3474314836465	2609.009707370496	-2524.059763702323	897.0387893539529	2436.073402202919	-2525.51980148528	895.9380370207214	2532.788836982647	-2398.29344162544	818.7965182262703	2277.645430617149	-2427.694068008446	819.4887201458902	2686.202698361653	-2371.666590960369	599.2473085546867	2273.356965491851	-2212.823762684581	614.793011757895	2316.683005738097	-2352.044807969738	492.6527898115364	2333.136236186276	-2238.475305005261	435.2273066017869	2253.431069541146	-2227.565533373282	418.169375738368	2378.553229653423	-2311.829389746757	347.2233538123801	2224.922847095735	-2277.54536146156	206.5818108753981	2242.390857172996	-2365.966532202139	250.5567428136881	2292.070974950745	-2353.443987668628	93.99021083507992	2212.90743233367	-2332.064931105987	102.7075108451407	2297.709226263444	-2212.643494759458	74.19221784242363	2273.964260278081	-2249.279145838883	57.53972416822163	2193.288109230606	-2419.738076367607	66.84303434526954	2259.602914801802	-2199.589715389714	579.4650678505636	2599.317296005391	-2337.002843014442	632.3633631478951	2697.86964605676	-2349.351402842109	547.5867855726034	2676.427777325737	-2236.757290255954	446.5888875981481	2700.55165305434	-2240.806671881363	406.2914971932158	2577.037225138166	-2264.292724023981	193.6649223506144	2685.194650954831	-2366.320898637138	220.2803232039676	2675.49289296987	-2310.12591953397	280.6272837297673	2735.513435851387	-2352.087956676723	91.76958048935765	2732.560229378262	-2331.075531526437	92.30749900737911	2648.885499231766	-2206.949790914016	70.94964099753096	2686.530435268478	-2240.511816491417	53.91514105192084	2762.4031556314	-2413.208901103068	63.47450641615994	2677.850596054157	
280	23.05	-2361.499318016826	1309.505977968312	2502.183347705189	-2284.946941842692	1282.430079612739	2370.713287962439	-2243.304990384454	1217.592662224915	2492.320336342756	-2322.480063471281	845.2870649919785	2351.51570453351	-2325.854291774755	858.1625345688865	2608.868803816211	-2522.336282599358	899.0795162932244	2436.247851242699	-2523.659559247222	898.0101946696248	2532.911879864855	-2396.554970775639	821.0439197853917	2277.746164583213	-2425.378027452599	821.6918685113156	2686.094230755821	-2371.25447411472	601.0508470928221	2273.586447504631	-2212.32139434647	615.1241353417794	2316.877071959294	-2352.558725668417	494.2876692101866	2333.638008791781	-2239.570524273277	435.7498275680244	2253.755127034294	-2228.622834603796	418.6145982040609	2378.845334022122	-2312.810863785941	347.5231247838508	2225.156975577957	-2277.978339096116	206.8928056822067	2242.449203357648	-2366.552979905703	250.5646283084831	2292.224372166859	-2353.427505936264	93.98858608058354	2212.856918647103	-2332.098075157269	102.6067136234591	2297.595253569489	-2212.60701509251	74.11994020899679	2273.975593031539	-2249.238010614054	57.48545599566303	2193.314899578112	-2419.720529747219	66.85514787049044	2259.583611765499	-2199.114335941212	579.6479169693249	2599.195238673261	-2335.882555451568	633.9896511752182	2697.792141760552	-2349.114344512317	549.1716939212953	2676.30990497779	-2237.473189771323	447.0113181169444	2700.362455158338	-2241.707991460183	406.6214298152367	2576.776025686	-2264.574878666076	193.8809981085659	2685.09405252114	-2366.675665999867	220.2550216425052	2675.509832756907	-2310.587600200024	280.7688960572998	2735.452701797979	-2352.081021730453	91.78009539241424	2732.584314324686	-2331.040245931412	92.30092594559858	2648.894148567579	-2206.849987495348	70.7613329735731	2686.570528407291	-2240.454105623313	53.88142996796201	2762.405636240399	-2413.199830840774	63.49937688979076	2677.848840200079	
281	23.055	-2362.873472067978	1312.723232933056	2502.122452963688	-2286.598296739804	1285.948538714849	2370.317316636164	-2244.194337446523	1221.411582116918	2492.179892698343	-2320.605684908022	848.159323604787	2351.357353706875	-2323.69502111094	860.9285491647863	2608.735159180181	-2520.611303028577	901.0615775828861	2436.421991598202	-2521.801004347857	900.0314167103243	2533.033997501314	-2394.810147801115	823.2480974906058	2277.848942712709	-2423.065945559331	823.8615437996928	2685.991815029643	-2370.841382040157	602.8307812729906	2273.810266924969	-2211.835095216565	615.43530687251	2317.07590649127	-2353.070156126696	495.9117537475929	2334.136384478742	-2240.668699395289	436.2677240441175	2254.076576607232	-2229.681655426214	419.0559886396197	2379.13643620861	-2313.788928353979	347.8190659883618	2225.384474602108	-2278.407139104552	207.2008313567233	2242.512188247011	-2367.141253120006	250.5723380296094	2292.370176243444	-2353.406761780459	93.98595420614011	2212.810180957447	-2332.134875797067	102.4945331980024	2297.479994970662	-2212.567768297206	74.04262989000904	2273.985697925585	-2249.195822312353	57.43041795925564	2193.341918164741	-2419.701873979745	66.86721349712296	2259.566842806661	-2198.661018504925	579.8142568241282	2599.050556613759	-2334.755759040759	635.5962500622226	2697.711540978979	-2348.874700208781	550.741627834765	2676.19136343572	-2238.197975531332	447.4266126090712	2700.16578805804	-2242.615566946707	406.9482173602814	2576.502480989747	-2264.857801152946	194.0966933894275	2684.986450199734	-2367.029834816595	220.223233351888	2675.522936926259	-2311.050427219473	280.9101637913255	2735.385240162281	-2352.069849835664	91.79255728604367	2732.603111622588	-2331.003429990553	92.29263322323196	2648.898130363908	-2206.748421971861	70.56779809616404	2686.610705281185	-2240.395985238993	53.84398370113028	2762.407214492036	-2413.189919282504	63.52428725359493	2677.845338763514	
